Coordinates
version=1
nRows=24
nColumns=33
inDegrees=yes

Units are S.I. units (second, meters, Newtons, ...)
Angles are in degrees.

endheader
time	ground_thorax_rot_x	ground_thorax_rot_y	ground_thorax_rot_z	ground_thorax_tx	ground_thorax_ty	ground_thorax_tz	clav_prot_r	clav_elev_r	scapula_abduction_r	scapula_elevation_r	scapula_upward_rot_r	scapula_winging_r	shoulder_elv_r	plane_of_elev_r	axial_rot_r	elbow_flexion_r	pro_sup_r	wrist_flex_r	wrist_dev_r	clav_prot_l	clav_elev_l	scapula_abduction_l	scapula_elevation_l	scapula_upward_rot_l	scapula_winging_l	shoulder_elv_l	plane_of_elev_l	axial_rot_l	elbow_flexion_l	pro_sup_l	wrist_flex_l	wrist_dev_l	
1.5000	0.705833	4.016180	10.104882	-0.100487	1.031845	0.020235	7.944892	-8.527911	15.684500	-3.055891	3.622969	-3.758689	-70.475262	-73.185666	72.667895	-61.156048	-133.687554	54.223612	-25.000000	7.865236	1.060345	-8.121162	-22.850995	-34.775760	-3.314068	55.196442	-36.521038	-1.512278	57.143418	27.189948	-0.916676	-25.000000	
1.5100	0.682215	3.914993	10.180912	-0.100623	1.031597	0.020138	8.078014	-8.591334	15.853321	-3.061425	3.498474	-3.794730	-69.958160	-73.131466	73.133539	-61.071974	-133.767213	54.615314	-25.000000	7.781978	1.104302	-7.898829	-22.708621	-34.383279	-3.332335	54.900613	-36.555652	-1.538327	57.089219	27.414051	-0.882523	-25.000000	
1.5200	0.657428	3.779751	10.247253	-0.100766	1.031354	0.020011	8.261072	-8.661010	16.085766	-3.054593	3.330550	-3.851168	-69.225195	-73.074833	73.764196	-60.959531	-133.882565	55.156869	-25.000000	7.673504	1.187938	-7.601044	-22.535809	-33.843298	-3.358102	54.505356	-36.639271	-1.569110	57.014581	27.723444	-0.838683	-25.000000	
1.5300	0.631185	3.619299	10.306053	-0.100917	1.031136	0.019864	8.480925	-8.737436	16.368862	-3.043496	3.137885	-3.923392	-68.322375	-73.018440	74.520240	-60.831373	-134.028039	55.808591	-25.000000	7.548076	1.298303	-7.251450	-22.337286	-33.193589	-3.387237	54.041886	-36.756109	-1.603173	56.921495	28.095669	-0.791541	-25.000000	
1.5400	0.605067	3.470682	10.362374	-0.101065	1.030945	0.019734	8.679011	-8.810657	16.630253	-3.042420	2.976539	-3.989611	-67.482252	-72.966268	75.218915	-60.731118	-134.170140	56.398861	-25.000000	7.436698	1.388903	-6.941192	-22.147903	-32.605342	-3.409702	53.630844	-36.850216	-1.635134	56.838297	28.432989	-0.760982	-25.000000	
1.5500	0.579918	3.339947	10.402081	-0.101219	1.030794	0.019635	8.849707	-8.885058	16.866435	-3.059950	2.857969	-4.047299	-66.720099	-72.915117	75.851822	-60.673409	-134.311681	56.906263	-25.000000	7.344962	1.446291	-6.686234	-21.964915	-32.101545	-3.421753	53.293027	-36.908493	-1.664681	56.761518	28.724217	-0.757807	-25.000000	
1.5600	0.558452	3.255740	10.431348	-0.101369	1.030674	0.019592	8.949246	-8.951216	17.019551	-3.102013	2.816740	-4.079141	-66.205557	-72.870243	76.283279	-60.689025	-134.431789	57.202195	-25.000000	7.296237	1.435365	-6.555628	-21.816594	-31.815321	-3.416416	53.120605	-36.889913	-1.688850	56.712153	28.896754	-0.804291	-25.000000	
1.5700	0.543325	3.212945	10.448710	-0.101519	1.030582	0.019598	8.989351	-9.010975	17.100231	-3.162437	2.833895	-4.087832	-65.885238	-72.831116	76.557511	-60.770218	-134.543767	57.321375	-25.000000	7.284386	1.363868	-6.532248	-21.698505	-31.720804	-3.396866	53.091177	-36.806759	-1.710230	56.684017	28.971194	-0.907531	-25.000000	
1.5800	0.541871	3.207877	10.454251	-0.101668	1.030495	0.019650	8.978845	-9.059876	17.107138	-3.224213	2.877462	-4.073184	-65.687544	-72.802467	76.724551	-60.917458	-134.680142	57.289924	-25.000000	7.306916	1.230038	-6.610745	-21.608497	-31.816566	-3.364655	53.199579	-36.665110	-1.736221	56.675342	28.965564	-1.107344	-25.000000	
1.5900	0.552533	3.210568	10.445728	-0.101821	1.030406	0.019718	8.965200	-9.105902	17.093754	-3.271510	2.891778	-4.050472	-65.415529	-72.784318	76.947754	-61.091965	-134.875375	57.250408	-25.000000	7.338356	1.074060	-6.716929	-21.523971	-31.970077	-3.329622	53.350643	-36.513367	-1.769300	56.663927	28.961048	-1.400535	-25.000000	
1.6000	0.575822	3.222935	10.442135	-0.101979	1.030300	0.019807	8.940638	-9.145421	17.023025	-3.282376	2.830499	-4.004832	-64.995682	-72.798727	77.306445	-61.296310	-135.194426	57.196668	-25.000000	7.383784	0.882872	-6.871975	-21.466404	-32.252435	-3.294986	53.587548	-36.340513	-1.808053	56.654742	28.958947	-1.902054	-25.000000	
1.6100	0.603101	3.241408	10.457517	-0.102133	1.030172	0.019906	8.906389	-9.180398	16.902730	-3.262951	2.704517	-3.939029	-64.484425	-72.844667	77.762949	-61.505867	-135.596199	57.138707	-25.000000	7.437193	0.681473	-7.055625	-21.442629	-32.625463	-3.264956	53.881587	-36.162786	-1.844113	56.653312	28.958492	-2.546652	-25.000000	
1.6200	0.631668	3.264257	10.488953	-0.102280	1.030018	0.020012	8.864089	-9.212278	16.739709	-3.217654	2.521567	-3.855559	-63.906840	-72.918494	78.292664	-61.717198	-136.061071	57.081407	-25.000000	7.497109	0.477081	-7.260989	-21.449165	-33.066989	-3.238943	54.219883	-35.983915	-1.876561	56.664572	28.958761	-3.297807	-25.000000	
1.6300	0.650761	3.286441	10.533358	-0.102413	1.029836	0.020109	8.821292	-9.247905	16.570492	-3.170937	2.327051	-3.767835	-63.386138	-73.001584	78.779797	-61.909145	-136.490989	57.045862	-25.000000	7.554312	0.307785	-7.451000	-21.473837	-33.472800	-3.216960	54.536836	-35.830323	-1.898974	56.699819	28.956854	-3.980663	-25.000000	
1.6400	0.660468	3.309406	10.587065	-0.102527	1.029629	0.020196	8.777334	-9.289732	16.393423	-3.124260	2.119494	-3.674304	-62.921432	-73.092381	79.217948	-62.091110	-136.887705	57.035292	-25.000000	7.609680	0.171119	-7.627451	-21.513446	-33.841424	-3.197840	54.832111	-35.699773	-1.912973	56.768522	28.951529	-4.589287	-25.000000	
1.6500	0.656653	3.339952	10.649370	-0.102642	1.029372	0.020270	8.730766	-9.354817	16.200379	-3.087106	1.884302	-3.564536	-62.546598	-73.189808	79.549338	-62.293733	-137.232855	57.081875	-25.000000	7.666828	0.079142	-7.791922	-21.564449	-34.141816	-3.176255	55.093024	-35.602427	-1.924832	56.914722	28.938328	-5.046666	-25.000000	
1.6600	0.646725	3.379344	10.705951	-0.102765	1.029084	0.020346	8.680594	-9.438431	15.992110	-3.057601	1.627262	-3.440865	-62.226469	-73.289378	79.803711	-62.534968	-137.552928	57.170725	-25.000000	7.727680	0.011552	-7.953838	-21.616540	-34.394994	-3.149811	55.336483	-35.521600	-1.934359	57.137730	28.915830	-5.400738	-25.000000	
1.6700	0.630979	3.430195	10.753324	-0.102901	1.028754	0.020421	8.622746	-9.533225	15.764970	-3.032490	1.356052	-3.304962	-61.950540	-73.391624	79.997920	-62.826807	-137.860167	57.294917	-24.999999	7.789758	-0.031525	-8.109386	-21.672224	-34.605778	-3.120662	55.568363	-35.448526	-1.927719	57.464725	28.879337	-5.678294	-24.999999	
1.6800	0.611379	3.485844	10.795130	-0.103036	1.028410	0.020500	8.554005	-9.618113	15.522314	-3.001457	1.092031	-3.167242	-61.681043	-73.499576	80.205565	-63.151719	-138.188030	57.412674	-24.999999	7.847816	-0.066018	-8.255329	-21.733537	-34.810025	-3.095265	55.805663	-35.369354	-1.884946	57.872646	28.827281	-5.977333	-24.999999	
1.6900	0.591758	3.550170	10.829538	-0.103177	1.028063	0.020579	8.472877	-9.692984	15.261939	-2.964742	0.835639	-3.026899	-61.410400	-73.610271	80.419983	-63.516298	-138.547583	57.518664	-24.999999	7.899735	-0.097021	-8.388390	-21.794465	-35.005940	-3.073721	56.048482	-35.276280	-1.798232	58.367110	28.755355	-6.302941	-24.999998	
1.7000	0.575925	3.611726	10.857650	-0.103304	1.027757	0.020662	8.387849	-9.744011	15.021096	-2.929025	0.634386	-2.905661	-61.182768	-73.704921	80.608340	-63.883775	-138.897630	57.587705	-24.999998	7.934504	-0.122847	-8.481258	-21.837888	-35.153209	-3.059912	56.262590	-35.174699	-1.658834	58.900517	28.664653	-6.613716	-24.999997	
1.7100	0.568710	3.676114	10.880175	-0.103432	1.027519	0.020748	8.293313	-9.796678	14.770315	-2.899161	0.443970	-2.780309	-60.949858	-73.802529	80.788288	-64.277927	-139.310839	57.613714	-24.999996	7.958510	-0.169207	-8.556445	-21.857113	-35.292132	-3.048550	56.472903	-35.053185	-1.463117	59.469600	28.543257	-6.954549	-24.999995	
1.7200	0.566207	3.739394	10.906071	-0.103557	1.027363	0.020845	8.193520	-9.850584	14.518938	-2.876607	0.269171	-2.654886	-60.717977	-73.897179	80.958530	-64.687393	-139.766832	57.602735	-24.999993	7.972216	-0.233087	-8.612943	-21.852261	-35.416481	-3.039747	56.677375	-34.916582	-1.220170	60.050572	28.396401	-7.308369	-24.999992	
1.7300	0.567357	3.807660	10.937254	-0.103706	1.027271	0.020956	8.087517	-9.920304	14.248209	-2.860217	0.074393	-2.514909	-60.445089	-73.996057	81.137186	-65.139543	-140.287828	57.580161	-24.999988	7.984409	-0.320397	-8.672042	-21.830004	-35.553328	-3.029137	56.902406	-34.755599	-0.945921	60.658130	28.224996	-7.691378	-24.999986	
